<svg xmlns="http://www.w3.org/2000/svg" xmlns:xlink="http://www.w3.org/1999/xlink" width="77" height="77" viewBox="0 0 77 77">
  <defs>
    <radialGradient id="radial-gradient" cx="0.722" cy="0.359" r="0.745" gradientTransform="matrix(0.701, -0.714, 0.766, 0.752, -0.059, 0.604)" gradientUnits="objectBoundingBox">
      <stop offset="0" stop-color="#00d2ff"/>
      <stop offset="1" stop-color="#0096b7"/>
    </radialGradient>
    <clipPath id="clip-Checklist">
      <rect width="77" height="77"/>
    </clipPath>
  </defs>
  <g id="Checklist" clip-path="url(#clip-Checklist)">
    <g id="Grupo_2018" data-name="Grupo 2018" transform="translate(-603.098 -212.097)">
      <circle id="Elipse_395" data-name="Elipse 395" cx="36" cy="36" r="36" transform="translate(606.097 215.097)" fill="#fff" opacity="0.1"/>
      <g id="Grupo_1990" data-name="Grupo 1990" transform="translate(612.224 221.223)">
        <circle id="Elipse_253" data-name="Elipse 253" cx="30" cy="30" r="30" transform="translate(-0.128 -0.126)" fill="url(#radial-gradient)"/>
      </g>
      <g id="Grupo_541" data-name="Grupo 541" transform="translate(625.732 224.93)">
        <g id="Grupo_494" data-name="Grupo 494" transform="translate(0 0)">
          <g id="Grupo_491" data-name="Grupo 491" transform="translate(0 0)">
            <g id="Grupo_475" data-name="Grupo 475" transform="translate(0 12.57)">
              <g id="Grupo_474" data-name="Grupo 474" transform="translate(0 0)">
                <g id="Rectángulo_959" data-name="Rectángulo 959" fill="none" stroke="#fff" stroke-miterlimit="10" stroke-width="1.5">
                  <rect width="29.1" height="29.1" rx="2" stroke="none"/>
                  <rect x="0.75" y="0.75" width="27.6" height="27.6" rx="1.25" fill="none"/>
                </g>
              </g>
            </g>
            <g id="Grupo_486" data-name="Grupo 486" transform="matrix(0.656, 0.755, -0.755, 0.656, 31.315, 0)">
              <rect id="Rectángulo_962" data-name="Rectángulo 962" width="9.606" height="14.409" transform="translate(11.283 6.277)" fill="#00b8e0"/>
              <g id="Grupo_477" data-name="Grupo 477" transform="translate(0 17.295) rotate(-48)">
                <path id="Trazado_236" data-name="Trazado 236" d="M15.207,0,3.4,10.917l-.062.058L0,22.143l11.319-2.426L11.4,19.7l6.871-6.352,5-4.623ZM4.617,12.533c.128.049.255.095.4.144a2.348,2.348,0,0,1,.955.508,2.986,2.986,0,0,1,.619.922c.047.111.088.23.142.383A3.836,3.836,0,0,0,7.2,15.51a1.886,1.886,0,0,0,1.212.745l.093.025a1.984,1.984,0,0,1,.811.4,2.006,2.006,0,0,1,.566.794.8.8,0,0,1,.058.4,1.878,1.878,0,0,0-.039.317l0,.249L5.566,19.557l-2.5-2.7Zm4.041,2.284c-.237-.068-.241-.076-.274-.119a2.666,2.666,0,0,1-.278-.6c-.06-.16-.121-.327-.2-.492a4.948,4.948,0,0,0-.969-1.4,3.969,3.969,0,0,0-1.516-.907l-.082-.033L5.3,11.245,15.236,2.06l5.985,6.475-9.827,9.084a2.416,2.416,0,0,0-.16-.562,3.92,3.92,0,0,0-1.027-1.43,3.81,3.81,0,0,0-1.455-.782Z" transform="translate(0 0)" fill="#fff"/>
              </g>
            </g>
            <g id="Grupo_484" data-name="Grupo 484" transform="translate(4.222 30.363)">
              <rect id="Rectángulo_650" data-name="Rectángulo 650" width="4.823" height="2.211" transform="translate(1.564 2.462) rotate(45)" fill="#fff"/>
              <rect id="Rectángulo_651" data-name="Rectángulo 651" width="6.964" height="2.211" transform="translate(2.863 4.925) rotate(-45)" fill="#fff"/>
            </g>
            <g id="Grupo_487" data-name="Grupo 487" transform="translate(4.222 16.64)">
              <rect id="Rectángulo_650-2" data-name="Rectángulo 650" width="4.823" height="2.211" transform="translate(1.564 2.462) rotate(45)" fill="#fff"/>
              <rect id="Rectángulo_651-2" data-name="Rectángulo 651" width="6.964" height="2.211" transform="translate(2.863 4.925) rotate(-45)" fill="#fff"/>
            </g>
          </g>
        </g>
        <line id="Línea_316" data-name="Línea 316" y2="27.447" transform="translate(15.709 13.184)" fill="none" stroke="#fff" stroke-width="2"/>
        <line id="Línea_317" data-name="Línea 317" x2="15.096" transform="translate(0.614 26.907)" fill="none" stroke="#fff" stroke-width="2"/>
      </g>
    </g>
  </g>
</svg>
