<svg xmlns="http://www.w3.org/2000/svg" xmlns:xlink="http://www.w3.org/1999/xlink" width="77" height="77" viewBox="0 0 77 77">
  <defs>
    <radialGradient id="radial-gradient" cx="0.722" cy="0.359" r="0.745" gradientTransform="matrix(0.701, -0.714, 0.766, 0.752, -0.059, 0.604)" gradientUnits="objectBoundingBox">
      <stop offset="0" stop-color="#00d2ff"/>
      <stop offset="1" stop-color="#0096b7"/>
    </radialGradient>
    <clipPath id="clip-Clean_Up">
      <rect width="77" height="77"/>
    </clipPath>
  </defs>
  <g id="Clean_Up" data-name="Clean Up" clip-path="url(#clip-Clean_Up)">
    <g id="Grupo_2019" data-name="Grupo 2019" transform="translate(-660.596 -251.596)">
      <circle id="Elipse_396" data-name="Elipse 396" cx="36" cy="36" r="36" transform="translate(663.596 254.596)" fill="#fff" opacity="0.1"/>
      <g id="Grupo_1992" data-name="Grupo 1992" transform="translate(670.138 261.137)">
        <circle id="Elipse_253" data-name="Elipse 253" cx="29" cy="29" r="29" transform="translate(0.458 0.459)" fill="url(#radial-gradient)"/>
      </g>
      <g id="Cleaning_Icon" transform="translate(683.535 269.128)">
        <g id="Grupo_220" data-name="Grupo 220" transform="translate(0.507 17.322)">
          <path id="Trazado_157" data-name="Trazado 157" d="M34.525,23.68a3.507,3.507,0,0,1-3.443-2.312,3.748,3.748,0,0,1-6.262.176,3.515,3.515,0,0,1-2.869,1.313,3.506,3.506,0,0,1-3.162-1.722,3.51,3.51,0,0,1-2.835,1.287,3.506,3.506,0,0,1-3.228-1.828,3.589,3.589,0,0,1-2.479.908,3.933,3.933,0,0,1-1.638-.333,14.65,14.65,0,0,1-3.453,6.206s2.79,2.511,9.9,1.813c0,0,1.395-1.395,1.534-5.162,0,0,.7,3.487.14,5.023H30.921l.557-6.025,2.246,6.164h3.931a58.254,58.254,0,0,0-1.031-6.118A3.712,3.712,0,0,1,34.525,23.68Z" transform="translate(-5.156 -10.916)" fill="#fff"/>
          <g id="Grupo_219" data-name="Grupo 219" transform="translate(0 0)">
            <path id="Trazado_158" data-name="Trazado 158" d="M37.656,32.386s-1.534-15.2-7.253-18.272H9.48s-1.395,0-1.116,1.813A14.652,14.652,0,0,1,5.156,30.573s2.79,2.511,9.9,1.813c0,0,1.395-1.395,1.534-5.162,0,0,.7,3.487.14,5.023H30.921l.557-6.025,2.246,6.164Z" transform="translate(-5.156 -14.114)" fill="rgba(0,0,0,0)" stroke="#fff" stroke-miterlimit="10" stroke-width="1"/>
          </g>
        </g>
        <g id="Trazado_159" data-name="Trazado 159" transform="translate(-4.307 -3.025)" fill="rgba(255,242,242,0)" stroke-miterlimit="10">
          <path d="M 6.424862384796143 18.61894989013672 C 6.366429328918457 18.49493598937988 6.301425933837891 18.34659004211426 6.229984283447266 18.16922760009766 L 4.820493698120117 14.66640567779541 C 4.876969337463379 14.35314846038818 5.116830825805664 13.51661491394043 6.072457313537598 13.41749477386475 C 6.321361064910889 13.42733192443848 7.880412578582764 13.48636817932129 9.436034202575684 13.48636817932129 C 12.96355438232422 13.48636817932129 13.2890043258667 13.21300792694092 13.40577411651611 12.76277828216553 L 13.4594144821167 12.55593872070313 L 13.34699440002441 12.37420845031738 L 9.586307525634766 6.295270442962646 C 9.549365043640137 6.1571946144104 9.455325126647949 5.747959136962891 9.497983932495117 5.294028282165527 C 9.561684608459473 4.616238117218018 9.887824058532715 4.156468391418457 10.49504470825195 3.888448238372803 L 10.51703453063965 3.878748178482056 L 10.53798389434814 3.866978168487549 C 10.94150447845459 3.640348196029663 11.3461742401123 3.52543830871582 11.74074459075928 3.52543830871582 C 13.04617404937744 3.52543830871582 13.96437168121338 4.753838539123535 14.09556865692139 4.939459800720215 L 17.8757438659668 12.71692848205566 L 17.96731376647949 12.90530776977539 L 18.16580390930176 12.97218799591064 C 18.23384475708008 12.99510860443115 19.86586380004883 13.53362846374512 22.79241371154785 13.53363800048828 C 22.79251098632813 13.53363800048828 22.7926139831543 13.53363800048828 22.79270935058594 13.53363800048828 C 23.58428001403809 13.53363800048828 24.40624618530273 13.49347877502441 25.23581504821777 13.41428852081299 L 25.29839515686035 13.4083080291748 L 25.33615112304688 13.39439487457275 C 25.35612106323242 13.38955307006836 25.43802642822266 13.3717679977417 25.56302452087402 13.3717679977417 C 25.83346366882324 13.3717679977417 26.25226593017578 13.45188617706299 26.72868347167969 13.8274564743042 L 29.56362152099609 17.43785858154297 L 7.957234382629395 17.43785858154297 L 7.904694557189941 17.43785858154297 L 7.853304386138916 17.44877815246582 C 7.418065071105957 17.54126358032227 6.72544002532959 17.89092636108398 6.424862384796143 18.61894989013672 Z" stroke="none"/>
          <path d="M 6.54212760925293 17.60555076599121 C 6.916197776794434 17.2538013458252 7.367191314697266 17.04091262817383 7.749374389648438 16.95969772338867 L 7.85215425491333 16.93785858154297 L 7.957234382629395 16.93785858154297 L 28.53528785705566 16.93785858154297 L 26.37408256530762 14.18548011779785 C 26.03029251098633 13.92809009552002 25.74593162536621 13.8717679977417 25.56302452087402 13.8717679977417 C 25.52483558654785 13.8717679977417 25.49535751342773 13.87442302703857 25.47652053833008 13.87682151794434 L 25.43378448486328 13.8976583480835 L 25.2833251953125 13.91201782226563 C 24.43797492980957 13.99271869659424 23.60001373291016 14.03363800048828 22.79241371154785 14.03363800048828 C 19.78483390808105 14.03362846374512 18.07737350463867 13.47000789642334 18.00616455078125 13.44601821899414 L 17.60917472839355 13.31226825714111 L 17.42605400085449 12.93549823760986 L 13.66578769683838 5.198990821838379 C 13.50908470153809 4.990362644195557 12.72932910919189 4.02543830871582 11.74074459075928 4.02543830871582 C 11.42862415313721 4.02543830871582 11.11528396606445 4.116208076477051 10.78283405303955 4.302918434143066 L 10.74092388153076 4.326468467712402 L 10.69694423675537 4.345878124237061 C 10.26513481140137 4.536468029022217 10.0496244430542 4.836048126220703 9.998154640197754 5.317248344421387 C 9.963357925415039 5.642622947692871 10.01781463623047 5.948020935058594 10.05256938934326 6.098567008972168 L 13.77220439910889 12.1111478805542 L 13.99704456329346 12.4745979309082 L 13.8897647857666 12.8882884979248 C 13.65822410583496 13.78111839294434 12.82574462890625 13.98636817932129 9.436034202575684 13.98636817932129 C 7.916783809661865 13.98636817932129 6.436313629150391 13.9321460723877 6.090621471405029 13.91862201690674 C 5.807322978973389 13.95464515686035 5.6229567527771 14.07518100738525 5.480624198913574 14.31462860107422 C 5.414988040924072 14.4250373840332 5.372410297393799 14.53895950317383 5.345365524291992 14.63140487670898 L 6.54212760925293 17.60555076599121 M 6.654067039489746 19.69283103942871 C 6.50305700302124 19.69286918640137 6.218606472015381 19.47920799255371 5.766194343566895 18.35604858398438 L 4.307004451751709 14.72971820831299 C 4.307004451751709 14.72971820831299 4.451874256134033 13.05544853210449 6.058934211730957 12.91654777526855 C 6.058934211730957 12.91654777526855 7.738429546356201 12.98637104034424 9.436033248901367 12.98637104034424 C 11.13363647460938 12.98637104034424 12.84934902191162 12.91654777526855 12.92178440093994 12.63725852966309 L 9.125184059143066 6.500268459320068 C 9.125184059143066 6.500268459320068 8.394844055175781 4.268908023834229 10.29314422607422 3.431028127670288 C 10.81039428710938 3.140522956848145 11.29618835449219 3.025439739227295 11.74074745178223 3.025439739227295 C 13.43090438842773 3.025439739227295 14.52884387969971 4.687098026275635 14.52884387969971 4.687098026275635 L 18.3254451751709 12.49835777282715 C 18.3254451751709 12.49835777282715 19.91418075561523 13.03362464904785 22.79241561889648 13.03364181518555 C 23.51202964782715 13.03364562988281 24.31212425231934 13.0001916885376 25.18829345703125 12.91654777526855 C 25.18829345703125 12.91654777526855 25.32890129089355 12.87176704406738 25.56302070617676 12.87176704406738 C 25.91363143920898 12.87176704406738 26.47403526306152 12.97214126586914 27.08658409118652 13.47364807128906 L 30.59194374084473 17.93785858154297 L 7.957234382629395 17.93785858154297 C 7.957234382629395 17.93785858154297 6.642914295196533 18.21714782714844 6.789274215698242 19.61212730407715 C 6.789274215698242 19.61212730407715 6.74683952331543 19.69280624389648 6.654067039489746 19.69283103942871 Z" stroke="none" fill="#fff"/>
        </g>
      </g>
    </g>
  </g>
</svg>
