<svg xmlns="http://www.w3.org/2000/svg" xmlns:xlink="http://www.w3.org/1999/xlink" width="77" height="77" viewBox="0 0 77 77">
  <defs>
    <radialGradient id="radial-gradient" cx="0.722" cy="0.359" r="0.745" gradientTransform="matrix(0.701, -0.714, 0.766, 0.752, -0.059, 0.604)" gradientUnits="objectBoundingBox">
      <stop offset="0" stop-color="#00d2ff"/>
      <stop offset="1" stop-color="#0096b7"/>
    </radialGradient>
    <clipPath id="clip-Plumbing">
      <rect width="77" height="77"/>
    </clipPath>
  </defs>
  <g id="Plumbing" clip-path="url(#clip-Plumbing)">
    <g id="Grupo_2025" data-name="Grupo 2025" transform="translate(-891.852 -530.853)">
      <circle id="Elipse_401" data-name="Elipse 401" cx="36" cy="36" r="36" transform="translate(894.853 533.853)" fill="#fff" opacity="0.1"/>
      <g id="Grupo_1997" data-name="Grupo 1997" transform="translate(901.182 540.181)">
        <circle id="Elipse_253" data-name="Elipse 253" cx="30" cy="30" r="30" transform="translate(-0.329 -0.329)" fill="url(#radial-gradient)"/>
      </g>
      <g id="Grupo_1998" data-name="Grupo 1998" transform="translate(912.275 548.508)">
        <path id="Trazado_170" data-name="Trazado 170" d="M18.4,3.1,8.526,12.232l-.04.037-2.767,9.26,9.4-2.015.053-.011,9.913-9.167ZM9.466,13.453c.131.055.263.1.4.15a1.992,1.992,0,0,1,.824.44,2.579,2.579,0,0,1,.534.8c.043.1.081.209.122.331a3.121,3.121,0,0,0,.389.835,1.478,1.478,0,0,0,.954.592l.108.027a1.747,1.747,0,0,1,.707.354,1.77,1.77,0,0,1,.495.693.792.792,0,0,1,.049.369,1.429,1.429,0,0,0-.032.253l0,.235.017.018-3.748.971L8.129,17.192Zm3.417,2.071c-.221-.064-.229-.076-.266-.125a2.234,2.234,0,0,1-.243-.524c-.049-.133-.1-.272-.165-.406a4.059,4.059,0,0,0-.8-1.161,3.3,3.3,0,0,0-1.262-.752c-.064-.024-.127-.049-.188-.075l8.472-7.833,5.119,5.536-8.4,7.767A1.946,1.946,0,0,0,15,17.366a3.225,3.225,0,0,0-.846-1.175,3.074,3.074,0,0,0-1.149-.629Z" transform="translate(-1.874 -3.103)" fill="#fff"/>
        <path id="Trazado_171" data-name="Trazado 171" d="M39.138,30.194h-.891v-8.68a10.7,10.7,0,0,0-3.207-7.6,10.242,10.242,0,0,0-7.306-2.961A10.37,10.37,0,0,0,17.586,21.286V25.1a1.247,1.247,0,0,1-1.245,1.245H7.66v-.878a.935.935,0,0,0-.934-.934H4.134a.936.936,0,0,0-.934.934v8.257a.947.947,0,0,0,.934.934H6.726a.947.947,0,0,0,.934-.934v-.482h8.681A8.144,8.144,0,0,0,24.468,25.1V21.4a3.512,3.512,0,0,1,3.21-3.556,3.377,3.377,0,0,1,2.6.926,3.436,3.436,0,0,1,1.091,2.515v8.907h-.482a.935.935,0,0,0-.934.936v2.592a.935.935,0,0,0,.934.934h8.255a.936.936,0,0,0,.936-.934V31.129A.937.937,0,0,0,39.138,30.194Zm-.282,1.218v2.025h-7.7V31.412Zm-1.827-4.263H32.582V21.286a4.666,4.666,0,1,0-9.331,0V25.1a6.925,6.925,0,0,1-6.909,6.925H13.734v-4.46h2.607A2.467,2.467,0,0,0,18.8,25.1v-3.81a9.112,9.112,0,1,1,18.225,0Zm0,1.218V30H32.582V28.367ZM10.492,32.021v-4.46h2.025v4.46Zm-1.218-4.46v4.46H7.858v-4.46ZM6.442,25.734v7.7H4.416v-7.7Z" transform="translate(-3.2 1.026)" fill="#fff"/>
      </g>
    </g>
  </g>
</svg>
